<svg width="32" height="32" viewBox="0 0 32 32" fill="none" xmlns="http://www.w3.org/2000/svg">
<path d="M24.8889 0H7.11111C3.18375 0 0 3.18375 0 7.11111V24.8889C0 28.8162 3.18375 32 7.11111 32H24.8889C28.8162 32 32 28.8162 32 24.8889V7.11111C32 3.18375 28.8162 0 24.8889 0Z" fill="#F48F56"/>
<path fill-rule="evenodd" clip-rule="evenodd" d="M12.0682 15.0586V12.7588L5.71097 15.1202H5.69678V17.4822H5.71097L12.0682 19.8464V17.5417L8.80823 16.2977L12.0682 15.0586Z" fill="#00292E"/>
<path fill-rule="evenodd" clip-rule="evenodd" d="M19.6328 18.0618L22.89 16.8249L19.6328 15.588V13.2882L25.9829 15.6524H25.9998V18.0165H25.9829L19.6328 20.3687V18.0618ZM16.9057 10.031L13.1708 22.0167H15.387L19.1219 10.031H16.9057Z" fill="#00292E"/>
</svg>
